<svg xmlns="http://www.w3.org/2000/svg" viewBox="0 0 84 84"><defs><style>.cls-1{opacity:0;}.cls-2{fill:#fff;}</style></defs><title>对话</title><g id="图层_2" data-name="图层 2"><g id="图层_1-2" data-name="图层 1"><g class="cls-1"><rect class="cls-2" width="84" height="84"/></g><path class="cls-2" d="M25.06,57.44a2,2,0,1,1,1.43-.6h0A2,2,0,0,1,25.06,57.44Z"/><path class="cls-2" d="M25.07,57.45A2,2,0,1,1,27,55a2,2,0,0,1,.06.48A2,2,0,0,1,25.07,57.45Z"/><path class="cls-2" d="M15.61,50a2,2,0,0,1-1.42-.59,25.47,25.47,0,0,1-7.54-18C6.65,16.85,19.29,5,34.83,5c11.3,0,21.47,6.29,25.92,16a2,2,0,0,1-3.64,1.66C53.31,14.38,44.57,9,34.83,9,21.5,9,10.65,19.05,10.65,31.41A21.49,21.49,0,0,0,17,46.57,2,2,0,0,1,15.61,50Z"/><path class="cls-2" d="M34.83,57.82a29.61,29.61,0,0,1-10.46-1.88h0A2,2,0,1,1,26,52.27a25.63,25.63,0,0,0,8.86,1.55C48.17,53.82,59,43.77,59,31.41a20.8,20.8,0,0,0-1.91-8.72A2,2,0,1,1,60.75,21,24.76,24.76,0,0,1,63,31.41C63,46,50.37,57.82,34.83,57.82Z"/><path class="cls-2" d="M15.61,64.87a2,2,0,0,1-2-2V48a2,2,0,0,1,4,0V58.27l6.08-5.67,2.73,2.93L17,64.33A2,2,0,0,1,15.61,64.87Z"/><path class="cls-2" d="M65.89,79a2,2,0,0,1-1.36-.54l-8.85-8.25a29.79,29.79,0,0,1-23.31-4.49,2,2,0,0,1,2.29-3.28,25.73,25.73,0,0,0,21.07,3.63,2,2,0,0,1,1.89.47l6.28,5.86V63.3a2,2,0,0,1,.77-1.58,21.77,21.77,0,0,0,8.68-17.21,21.18,21.18,0,0,0-5-13.7,2,2,0,0,1,3.07-2.56,25.14,25.14,0,0,1,6,16.26,25.66,25.66,0,0,1-9.46,19.74V77a2,2,0,0,1-2,2Z"/><circle class="cls-2" cx="20.34" cy="31.44" r="3.01"/><circle class="cls-2" cx="34.67" cy="31.44" r="3.01"/><circle class="cls-2" cx="49.01" cy="31.44" r="3.01"/></g></g></svg>