<svg xmlns="http://www.w3.org/2000/svg" viewBox="0 0 84 84"><defs><style>.cls-1{opacity:0;}.cls-2{fill:#fff;}.cls-3{fill:none;stroke:#fff;stroke-miterlimit:10;stroke-width:4px;}</style></defs><title>机器臂 机器</title><g id="图层_2" data-name="图层 2"><g id="图层_1-2" data-name="图层 1"><g class="cls-1"><rect class="cls-2" width="84" height="84"/></g><path class="cls-2" d="M82,74.25H2a2,2,0,0,1,0-4H82a2,2,0,0,1,0,4Z"/><path class="cls-2" d="M64.24,74.25H19.76V69.36a9.72,9.72,0,0,1,9.71-9.71H54.53a9.72,9.72,0,0,1,9.71,9.71Zm-40.48-4H60.24v-.89a5.72,5.72,0,0,0-5.71-5.71H29.47a5.72,5.72,0,0,0-5.71,5.71Z"/><path class="cls-2" d="M17.49,74.25H5.78V66.47a3.93,3.93,0,0,1,3.93-3.93h3.85a3.93,3.93,0,0,1,3.93,3.93Zm-7.71-4h3.71V66.54H9.78Z"/><path class="cls-2" d="M78.22,72.25h-4V66.54H70.51v5.71h-4V66.47a3.93,3.93,0,0,1,3.93-3.93h3.86a3.93,3.93,0,0,1,3.93,3.93Z"/><rect class="cls-2" x="33.25" y="52.06" width="4" height="9.59"/><rect class="cls-2" x="46.75" y="49.26" width="4" height="12.39"/><path class="cls-2" d="M42,58a8.69,8.69,0,0,1-6.19-2.56L25.13,44.76,28,41.93,38.64,52.62a4.75,4.75,0,0,0,8.1-3.36,4.77,4.77,0,0,0-1.39-3.36L34.67,35.22l2.83-2.83L48.18,43.08a8.77,8.77,0,0,1,2.56,6.18A8.74,8.74,0,0,1,42,58Z"/><path class="cls-2" d="M42,58a8.69,8.69,0,0,1-6.19-2.56L25.13,44.76,28,41.93,38.64,52.62a4.75,4.75,0,0,0,8.1-3.36,4.77,4.77,0,0,0-1.39-3.36L34.67,35.22l2.83-2.83L48.18,43.08a8.77,8.77,0,0,1,2.56,6.18A8.74,8.74,0,0,1,42,58Z"/><path class="cls-2" d="M37.08,33.6l-2.83-2.83L44.88,20.15a2.19,2.19,0,0,0,0-3.06L44.84,17a2.25,2.25,0,0,0-3.09,0L30.58,28.21l-2.83-2.83L38.93,14.2a6.2,6.2,0,0,1,8.78,0l.18.19A6.17,6.17,0,0,1,47.71,23Z"/><path class="cls-2" d="M59.26,23.76H46.09v-4H58.23V17.71H46.38v-4H59.26a3,3,0,0,1,3,3V20.8A3,3,0,0,1,59.26,23.76Z"/><path class="cls-2" d="M27.79,45.45a8.92,8.92,0,0,1-1.62-.14,10.19,10.19,0,0,1-5.72-2.9,10.39,10.39,0,0,1,7.34-17.74,9.12,9.12,0,0,1,1.75.16,10.3,10.3,0,0,1,8,6.68,8.64,8.64,0,0,1,.51,2,9,9,0,0,1,.13,1.56,10.39,10.39,0,0,1-10.4,10.4Zm0-16.78a6.39,6.39,0,0,0-4.51,10.91,6.28,6.28,0,0,0,3.55,1.79,6.13,6.13,0,0,0,5.49-1.79,6.35,6.35,0,0,0,1.87-4.52,5,5,0,0,0-.07-.89l0-.11a4.9,4.9,0,0,0-.29-1.14,6.3,6.3,0,0,0-4.95-4.13A5.47,5.47,0,0,0,27.79,28.67Z"/><path class="cls-2" d="M29.24,35.07a1.45,1.45,0,1,1-.42-1A1.43,1.43,0,0,1,29.24,35.07Z"/><rect class="cls-2" x="60.23" y="16.74" width="5.59" height="4"/><polygon class="cls-2" points="72.7 28.03 64.65 23.39 64.65 14.09 72.7 9.44 79.75 13.51 77.75 16.98 72.7 14.06 68.65 16.4 68.65 21.08 72.7 23.41 77.75 20.5 79.75 23.96 72.7 28.03"/><path class="cls-3" d="M78.75,22.23"/></g></g></svg>