<svg xmlns="http://www.w3.org/2000/svg" viewBox="0 0 84 84"><defs><style>.cls-1{fill:#fff;}.cls-2{fill:none;stroke:#fff;stroke-linecap:round;stroke-linejoin:round;stroke-width:4px;}.cls-3{opacity:0;}</style></defs><title>摄像头</title><g id="图层_2" data-name="图层 2"><g id="图层_1-2" data-name="图层 1"><path class="cls-1" d="M54.33,63.08a7,7,0,0,1-2.84-.61L9.36,43.72a7,7,0,0,1-3.52-9.18l9.3-20.9a2,2,0,1,1,3.61,1.74l0,0-.09.2L9.49,36.16a3,3,0,0,0,1.5,3.9L53.11,58.82A2.94,2.94,0,0,0,57,57.4l0-.09,5-11.25a2,2,0,1,1,3.65,1.63l-5,11.24a2.79,2.79,0,0,1-.13.27A6.92,6.92,0,0,1,54.33,63.08ZM57,57.42h0Z"/><path class="cls-1" d="M64.11,48.89a18.38,18.38,0,0,1-7.49-1.6L15.85,29.14A7,7,0,0,1,12.33,20L15,14a7,7,0,0,1,9.18-3.52L79.94,35.31a2,2,0,0,1,1,2.64A18.48,18.48,0,0,1,64.11,48.89Zm-42.78-35a3,3,0,0,0-2.7,1.75l-2.66,6a3,3,0,0,0,1.5,3.9L58.25,43.64h0a14.44,14.44,0,0,0,18.12-5.54l-53.83-24A3,3,0,0,0,21.33,13.87Z"/><path class="cls-1" d="M67.91,64.34a2,2,0,0,1-.81-.17L58,60.1a2,2,0,0,1,1.63-3.65L66.9,59.7l4.39-9.86-3.78-1.68a2,2,0,0,1,1.63-3.65L74.74,47a2,2,0,0,1,1,2.64l-6,13.52a2,2,0,0,1-1.83,1.19Z"/><path class="cls-1" d="M50.74,52.69a2,2,0,0,1-.81-.17l-13.51-6A2,2,0,0,1,38,42.85l13.51,6a2,2,0,0,1-.81,3.83Z"/><path class="cls-2" d="M26.8,40"/><path class="cls-2" d="M26.14,39.74"/><path class="cls-1" d="M26.14,41.74a2,2,0,0,1-.81-.17l-.75-.33a2,2,0,1,1,1.63-3.66l.75.33a2,2,0,0,1-.81,3.83Z"/><path class="cls-2" d="M24.54,39"/><path class="cls-2" d="M19.08,36.59"/><path class="cls-1" d="M17.67,38a2,2,0,0,1-.81-.17l-.75-.34a2,2,0,1,1,1.63-3.65l.75.34A2,2,0,0,1,17.67,38Z"/><path class="cls-1" d="M8.09,74.13H6.87a4,4,0,0,1-4-4V54.26a4,4,0,0,1,4-4H8.09a8,8,0,0,1,8,8v7.87A8,8,0,0,1,8.09,74.13ZM6.87,54.26V70.13H8.09a4,4,0,0,0,4-4V58.26a4,4,0,0,0-4-4Z"/><path class="cls-1" d="M24.26,59.23H14.09a2,2,0,1,1,0-4H23l3.15-6.31a2,2,0,0,1,3.58,1.79L26,58.12A2,2,0,0,1,24.26,59.23Z"/><path class="cls-1" d="M30.21,67.56H14.09a2,2,0,0,1,0-4H29l5.48-11A2,2,0,0,1,38,54.39L32,66.45A2,2,0,0,1,30.21,67.56Z"/><g class="cls-3"><rect class="cls-1" width="84" height="84"/></g></g></g></svg>