<svg xmlns="http://www.w3.org/2000/svg" viewBox="0 0 84 84"><defs><style>.cls-1{opacity:0;}.cls-2{fill:#35d4d8;}.cls-3{fill:#fff;}</style></defs><title>语音</title><g id="图层_2" data-name="图层 2"><g id="图层_1-2" data-name="图层 1"><g class="cls-1"><rect class="cls-2" width="84" height="84"/></g><path class="cls-3" d="M42,10.58a8.51,8.51,0,0,1,8.5,8.5V46.34a8.5,8.5,0,0,1-17,0V19.08a8.51,8.51,0,0,1,8.5-8.5m0-4a12.5,12.5,0,0,0-12.5,12.5V46.34a12.5,12.5,0,0,0,25,0V19.08A12.5,12.5,0,0,0,42,6.58Z"/><path class="cls-3" d="M42,66.41A21.42,21.42,0,0,1,20.91,41.32a2,2,0,0,1,3.94.69,17.41,17.41,0,1,0,34.31,0,2,2,0,0,1,3.94-.69A21.42,21.42,0,0,1,42,66.41Z"/><path class="cls-3" d="M42,79.42a2,2,0,0,1-2-2v-13a2,2,0,0,1,4,0v13A2,2,0,0,1,42,79.42Z"/><path class="cls-3" d="M50.2,79.42H33.8a2,2,0,0,1,0-4H50.2a2,2,0,0,1,0,4Z"/><path class="cls-3" d="M51.17,24.63H41.33a2,2,0,0,1,0-4h9.84a2,2,0,1,1,0,4Z"/><path class="cls-3" d="M51.17,33.49H41.33a2,2,0,0,1,0-4h9.84a2,2,0,1,1,0,4Z"/><path class="cls-3" d="M51.17,42.35H41.33a2,2,0,0,1,0-4h9.84a2,2,0,1,1,0,4Z"/></g></g></svg>