<svg xmlns="http://www.w3.org/2000/svg" viewBox="0 0 84 84"><defs><style>.cls-1{fill:#fff;}.cls-2{opacity:0;}</style></defs><title>人脸</title><g id="图层_2" data-name="图层 2"><g id="图层_1-2" data-name="图层 1"><path class="cls-1" d="M23.29,76.87H7a2,2,0,0,1-2-2V61.59a2,2,0,0,1,4,0V72.87H23.29a2,2,0,1,1,0,4Z"/><path class="cls-1" d="M77,27.6a2,2,0,0,1-2-2V11.13H59.28a2,2,0,0,1,0-4H77a2,2,0,0,1,2,2V25.6A2,2,0,0,1,77,27.6Z"/><path class="cls-1" d="M77,76.87H59.28a2,2,0,0,1,0-4H75V61.59a2,2,0,0,1,4,0V74.87A2,2,0,0,1,77,76.87Z"/><path class="cls-1" d="M7,27.6a2,2,0,0,1-2-2V9.13a2,2,0,0,1,2-2H23.29a2,2,0,1,1,0,4H9V25.6A2,2,0,0,1,7,27.6Z"/><path class="cls-1" d="M42,70.47c-8.88,0-22.49-12.75-22.49-28.47,0-23.53,12.23-28.47,22.49-28.47,14.29,0,22.49,10.38,22.49,28.47C64.49,57.44,50.67,70.47,42,70.47Zm0-52.94c-12.44,0-18.49,8-18.49,24.47,0,13.89,12.32,24.47,18.49,24.47S60.49,55.39,60.49,42C60.49,32.86,58.08,17.53,42,17.53Z"/><path class="cls-1" d="M42,49.36c-10.29,0-21.7-2.77-22.45-8.85v-.25a2,2,0,0,1,4-.2c.34,1.88,6.88,5.29,18.48,5.29,10.76,0,18.11-3.14,18.47-5.31a2,2,0,0,1,4,.25l0,.31C63.54,46.63,52.18,49.36,42,49.36Z"/><path class="cls-1" d="M21.58,41.4a2,2,0,0,1-2-2.37C20.71,33.16,32,30.49,42,30.49s21.12,2.64,22.36,8.42l0,.42a2,2,0,0,1-4,.37c-.58-2.19-7.79-5.21-18.44-5.21-11.63,0-18.11,3.39-18.46,5.28A2,2,0,0,1,21.58,41.4Z"/><path class="cls-1" d="M42,70.47a2,2,0,0,1-2-2V15.53a2,2,0,0,1,4,0V68.47A2,2,0,0,1,42,70.47Z"/><g class="cls-2"><rect class="cls-1" width="84" height="84"/></g></g></g></svg>