<svg xmlns="http://www.w3.org/2000/svg" viewBox="0 0 84 84"><defs><style>.cls-1{fill:#fff;}.cls-2{opacity:0;}</style></defs><title>字体</title><g id="图层_2" data-name="图层 2"><g id="图层_1-2" data-name="图层 1"><path class="cls-1" d="M23.29,76.87H7a2,2,0,0,1-2-2V61.59a2,2,0,0,1,4,0V72.87H23.29a2,2,0,0,1,0,4Z"/><path class="cls-1" d="M77,27.6a2,2,0,0,1-2-2V11.13H59.28a2,2,0,1,1,0-4H77a2,2,0,0,1,2,2V25.6A2,2,0,0,1,77,27.6Z"/><path class="cls-1" d="M77,76.87H59.28a2,2,0,0,1,0-4H75V61.59a2,2,0,0,1,4,0V74.87A2,2,0,0,1,77,76.87Z"/><path class="cls-1" d="M7,27.6a2,2,0,0,1-2-2V9.13a2,2,0,0,1,2-2H23.29a2,2,0,1,1,0,4H9V25.6A2,2,0,0,1,7,27.6Z"/><path class="cls-1" d="M47.39,69H36.72a6.44,6.44,0,0,1-1.18-12.76V30H32.27a6.44,6.44,0,0,1-12.87-.1V23.55a6.44,6.44,0,0,1,6.44-6.43H58.16a6.44,6.44,0,0,1,6.43,6.43v6.34a6.43,6.43,0,0,1-12.87.1H48.46V56.18A6.44,6.44,0,0,1,47.39,69ZM36.72,60.09a2.44,2.44,0,1,0,0,4.87H47.39a2.44,2.44,0,1,0,0-4.87H44.46V26H55.73v3.9a2.44,2.44,0,1,0,4.87,0V23.55a2.44,2.44,0,0,0-2.43-2.43H25.84a2.44,2.44,0,0,0-2.44,2.43v6.34a2.44,2.44,0,0,0,4.87,0V26H39.54v34.1Z"/><g class="cls-2"><rect class="cls-1" width="84" height="84"/></g></g></g></svg>