<svg xmlns="http://www.w3.org/2000/svg" viewBox="0 0 84 84"><defs><style>.cls-1{opacity:0;}.cls-2{fill:#fff;}</style></defs><title>基础实验</title><g id="图层_2" data-name="图层 2"><g id="图层_1-2" data-name="图层 1"><g class="cls-1"><rect class="cls-2" width="84" height="84"/></g><path class="cls-2" d="M64.27,76.86h0a2,2,0,1,1,2-2A2,2,0,0,1,64.26,76.86Z"/><path class="cls-2" d="M28.12,77H13.57a6.48,6.48,0,0,1-6.48-6.48V10.48A6.48,6.48,0,0,1,13.57,4h49.6a6.48,6.48,0,0,1,6.48,6.48v28a2,2,0,0,1-4,0v-28A2.48,2.48,0,0,0,63.17,8H13.57a2.48,2.48,0,0,0-2.48,2.48V70.53A2.48,2.48,0,0,0,13.57,73H28.12a2,2,0,0,1,0,4Z"/><path class="cls-2" d="M57.76,25H19.16a2,2,0,0,1,0-4h38.6a2,2,0,0,1,0,4Z"/><path class="cls-2" d="M57.67,37.47H19.07a2,2,0,0,1,0-4h38.6a2,2,0,1,1,0,4Z"/><path class="cls-2" d="M30.35,50H19.16a2,2,0,0,1,0-4H30.35a2,2,0,1,1,0,4Z"/><path class="cls-2" d="M39.67,51.61a5.14,5.14,0,1,1,5.14-5.14A5.15,5.15,0,0,1,39.67,51.61Zm0-6.28a1.14,1.14,0,1,0,1.14,1.14A1.14,1.14,0,0,0,39.67,45.33Z"/><path class="cls-2" d="M55.55,52.79a6.32,6.32,0,1,1,6.32-6.32A6.32,6.32,0,0,1,55.55,52.79Zm0-8.64a2.32,2.32,0,1,0,2.32,2.32A2.32,2.32,0,0,0,55.55,44.15Z"/><path class="cls-2" d="M46.92,79.93A11.86,11.86,0,1,1,58.77,68.07,11.87,11.87,0,0,1,46.92,79.93Zm0-19.71a7.86,7.86,0,1,0,7.86,7.86A7.86,7.86,0,0,0,46.92,60.22Z"/><path class="cls-2" d="M69.3,80a7.61,7.61,0,1,1,7.61-7.61A7.62,7.62,0,0,1,69.3,80Zm0-11.22a3.61,3.61,0,1,0,3.61,3.61A3.61,3.61,0,0,0,69.3,68.78Z"/><path class="cls-2" d="M51.24,48.47H42.82a2,2,0,0,1,0-4h8.42a2,2,0,1,1,0,4Z"/><path class="cls-2" d="M50.12,60.22a2,2,0,0,1-1.83-2.81l3.49-7.9a2,2,0,0,1,3.66,1.62L51.95,59A2,2,0,0,1,50.12,60.22Z"/><path class="cls-2" d="M63.79,73.35a2,2,0,0,1-.37,0l-7.21-1.37A2,2,0,0,1,57,68l7.21,1.37a2,2,0,0,1-.37,4Z"/></g></g></svg>