<svg xmlns="http://www.w3.org/2000/svg" viewBox="0 0 84 84"><defs><style>.cls-1{opacity:0;}.cls-2{fill:#fff;}</style></defs><title>音响 音频</title><g id="图层_2" data-name="图层 2"><g id="图层_1-2" data-name="图层 1"><g class="cls-1"><rect class="cls-2" width="84" height="84"/></g><path class="cls-2" d="M7.17,34.87a2,2,0,0,1-1.94-2.51,38,38,0,0,1,73.54,0,2,2,0,1,1-3.87,1,34,34,0,0,0-65.8,0A2,2,0,0,1,7.17,34.87Z"/><path class="cls-2" d="M42,80A38,38,0,0,1,5.23,51.65a2,2,0,1,1,3.87-1,34,34,0,0,0,65.8,0,2,2,0,1,1,3.87,1A38,38,0,0,1,42,80Z"/><path class="cls-2" d="M42,63a2,2,0,0,1-2-2V23a2,2,0,1,1,4,0V61A2,2,0,0,1,42,63Z"/><path class="cls-2" d="M52.71,53.82a2,2,0,0,1-2-2v-19a2,2,0,0,1,4,0v19A2,2,0,0,1,52.71,53.82Z"/><path class="cls-2" d="M68.53,48a2,2,0,0,1-2-2V38.66a2,2,0,0,1,4,0V46A2,2,0,0,1,68.53,48Z"/><path class="cls-2" d="M61.57,46.18a2,2,0,0,1-2-2V40.5a2,2,0,0,1,4,0v3.68A2,2,0,0,1,61.57,46.18Z"/><path class="cls-2" d="M31.3,53.14a2,2,0,0,1-2-2v-19a2,2,0,0,1,4,0v19A2,2,0,0,1,31.3,53.14Z"/><path class="cls-2" d="M15.48,47.34a2,2,0,0,1-2-2V38a2,2,0,0,1,4,0v7.36A2,2,0,0,1,15.48,47.34Z"/><path class="cls-2" d="M22.43,45.5a2,2,0,0,1-2-2V39.82a2,2,0,0,1,4,0V43.5A2,2,0,0,1,22.43,45.5Z"/></g></g></svg>