<svg xmlns="http://www.w3.org/2000/svg" viewBox="0 0 84 84">
<defs>
<style>.cls-1{fill:#fff;}.cls-2{opacity:0;}</style>
</defs>
<title>人体</title>
<g id="图层_2" data-name="图层 2">
<g id="图层_1-2" data-name="图层 1">
<path class="cls-1" d="M23.29,76.87H7a2,2,0,0,1-2-2V61.59a2,2,0,0,1,4,0V72.87H23.29a2,2,0,0,1,0,4Z"/>
<path class="cls-1" d="M77,27.6a2,2,0,0,1-2-2V11.13H59.28a2,2,0,1,1,0-4H77a2,2,0,0,1,2,2V25.6A2,2,0,0,1,77,27.6Z"/>
<path class="cls-1" d="M77,76.87H59.28a2,2,0,0,1,0-4H75V61.59a2,2,0,1,1,4,0V74.87A2,2,0,0,1,77,76.87Z"/>
<path class="cls-1" d="M7,27.6a2,2,0,0,1-2-2V9.13a2,2,0,0,1,2-2H23.29a2,2,0,1,1,0,4H9V25.6A2,2,0,0,1,7,27.6Z"/>
<path class="cls-1" d="M42,43.43A14.85,14.85,0,1,1,56.85,28.58,14.87,14.87,0,0,1,42,43.43Zm0-25.71A10.85,10.85,0,1,0,52.85,28.58,10.87,10.87,0,0,0,42,17.72Z"/>
<path class="cls-1" d="M65.52,66.28a2,2,0,0,1-2-1.74C61.95,52.5,52.69,43.43,42,43.43S22.05,52.51,20.46,64.54a2,2,0,1,1-4-.53C18.35,50,29.31,39.44,42,39.43S65.65,50,67.5,64a2,2,0,0,1-1.72,2.25Z"/>
<g class="cls-2">
<rect class="cls-1" width="84" height="84"/>
</g>
</g>
</g>
</svg>