<svg xmlns="http://www.w3.org/2000/svg" viewBox="0 0 84 84"><defs><style>.cls-1{fill:#fff;}.cls-2{opacity:0;}</style></defs><title>机器人</title><g id="图层_2" data-name="图层 2"><g id="图层_1-2" data-name="图层 1"><path class="cls-1" d="M65.47,71.73H18.53a6,6,0,0,1-6-6V40.4a6,6,0,0,1,6-6H65.47a6,6,0,0,1,6,6V65.73A6,6,0,0,1,65.47,71.73ZM18.53,38.4a2,2,0,0,0-2,2V65.73a2,2,0,0,0,2,2H65.47a2,2,0,0,0,2-2V40.4a2,2,0,0,0-2-2Z"/><path class="cls-1" d="M29.75,63.54A10.47,10.47,0,1,1,40.22,53.07,10.48,10.48,0,0,1,29.75,63.54Zm0-16.94a6.47,6.47,0,1,0,6.47,6.47A6.48,6.48,0,0,0,29.75,46.59Z"/><path class="cls-1" d="M29.71,58.15a5,5,0,1,1,1.95-9.65,2,2,0,0,1-1.57,3.68,1,1,0,0,0-1.12.2,1,1,0,0,0,0,1.45,1,1,0,0,0,.48.28,1,1,0,0,0,1-.25,2,2,0,0,1,2.78,2.88A5,5,0,0,1,29.71,58.15Z"/><path class="cls-1" d="M54.25,63.54A10.47,10.47,0,1,1,64.72,53.07,10.48,10.48,0,0,1,54.25,63.54Zm0-16.94a6.47,6.47,0,1,0,6.47,6.47A6.48,6.48,0,0,0,54.25,46.59Z"/><path class="cls-1" d="M54.11,58.27h-.18a5,5,0,1,1,5.24-6.56,2,2,0,1,1-3.81,1.23,1,1,0,0,0-.89-.71,1,1,0,0,0-.75.24,1,1,0,0,0-.37.7,1,1,0,0,0,.11.55,1,1,0,0,0,.83.57,2,2,0,0,1-.18,4Z"/><path class="cls-1" d="M76.61,60.6a2.72,2.72,0,0,1-2.72-2.72V47.21A2.72,2.72,0,0,1,77,44.51a8.11,8.11,0,0,1,0,16.07ZM77.9,49v7.17a4.11,4.11,0,0,0,0-7.17Z"/><path class="cls-1" d="M7.39,60.6l-.35,0A8.1,8.1,0,0,1,7,44.51a2.72,2.72,0,0,1,3.07,2.7V57.88A2.72,2.72,0,0,1,7.39,60.6ZM6.11,49a4.1,4.1,0,0,0,0,7.17Z"/><rect class="cls-1" x="40" y="27.62" width="4" height="7.91"/><path class="cls-1" d="M42,29a8.39,8.39,0,1,1,8.39-8.39A8.4,8.4,0,0,1,42,29Zm0-12.78a4.39,4.39,0,1,0,4.39,4.39A4.39,4.39,0,0,0,42,16.27Z"/><g class="cls-2"><rect class="cls-1" width="84" height="84"/></g></g></g></svg>