<svg xmlns="http://www.w3.org/2000/svg" viewBox="0 0 84 84"><defs><style>.cls-1{opacity:0;}.cls-2{fill:#fff;}</style></defs><title>智能家居</title><g id="图层_2" data-name="图层 2"><g id="图层_1-2" data-name="图层 1"><g class="cls-1"><rect class="cls-2" width="84" height="84"/></g><path class="cls-2" d="M73.12,75.5H10.87a4,4,0,0,1-4-4V29A4,4,0,0,1,9,25.42L42,8.25,75,25.42A4,4,0,0,1,77.12,29v3.92h-4V29L42,12.76,10.87,29V71.5H73.12V45.19h4V71.5A4,4,0,0,1,73.12,75.5Z"/><path class="cls-2" d="M77.12,63.94h-4V45.19a2,2,0,0,0-2-2h-.59a2,2,0,0,0-1.41.58L63,49.89a4,4,0,0,1-2.83,1.17H38.08a4,4,0,0,1-2.83-1.17l-6.12-6.12a2,2,0,0,0-1.41-.59h-.59a2,2,0,0,0-2,2V63.94h-4V45.19a6,6,0,0,1,6-6h.59A6,6,0,0,1,32,40.95l6.12,6.12H60.17l6.12-6.12a6,6,0,0,1,4.24-1.76h.59a6,6,0,0,1,6,6Z"/><path class="cls-2" d="M41.68,43.19a2,2,0,0,1-1.42-3.41,11.89,11.89,0,0,1,16.79-.05,2,2,0,0,1-2.81,2.84,7.89,7.89,0,0,0-11.15,0A2,2,0,0,1,41.68,43.19Z"/><path class="cls-2" d="M34.33,35.86a2,2,0,0,1-1.42-3.41,22.25,22.25,0,0,1,31.47,0,2,2,0,0,1-2.83,2.83,18.26,18.26,0,0,0-25.81,0A2,2,0,0,1,34.33,35.86Z"/></g></g></svg>