<svg xmlns="http://www.w3.org/2000/svg" viewBox="0 0 84 84"><defs><style>.cls-1{fill:#fff;}.cls-2{opacity:0;}</style></defs><title>物体</title><g id="图层_2" data-name="图层 2"><g id="图层_1-2" data-name="图层 1"><path class="cls-1" d="M29.48,47.74a4,4,0,0,1-2-.53L16.8,41a4,4,0,0,1-2-3.46V25.24a4,4,0,0,1,2-3.46l10.68-6.17a4,4,0,0,1,4,0l10.68,6.17a4,4,0,0,1,2,3.46V37.57a4,4,0,0,1-2,3.46L31.48,47.2A4,4,0,0,1,29.48,47.74Zm0-28.67L18.8,25.24V37.57l10.68,6.17,10.68-6.17V25.24Z"/><path class="cls-1" d="M29.48,47.58a2,2,0,0,1-2-2V31.41a2,2,0,0,1,4,0V45.58A2,2,0,0,1,29.48,47.58Z"/><path class="cls-1" d="M29.48,33.41a2,2,0,0,1-1-.27L16.21,26.05a2,2,0,1,1,2-3.46l12.27,7.09a2,2,0,0,1-1,3.73Z"/><path class="cls-1" d="M29.48,33.41a2,2,0,0,1-1-3.73l12.27-7.09a2,2,0,0,1,2,3.46L30.48,33.14A2,2,0,0,1,29.48,33.41Z"/><path class="cls-1" d="M54.52,68.93a4,4,0,0,1-2-.54L41.84,62.23a4,4,0,0,1-2-3.46V46.43a4,4,0,0,1,2-3.46L52.52,36.8a4,4,0,0,1,4,0L67.2,43a4,4,0,0,1,2,3.46V58.76a4,4,0,0,1-2,3.46L56.52,68.39A4,4,0,0,1,54.52,68.93Zm0-28.67L43.84,46.43V58.76l10.68,6.17L65.2,58.76V46.43Z"/><path class="cls-1" d="M54.52,68.77a2,2,0,0,1-2-2V52.59a2,2,0,0,1,4,0V66.77A2,2,0,0,1,54.52,68.77Z"/><path class="cls-1" d="M54.52,54.59a2,2,0,0,1-1-.27L41.25,47.24a2,2,0,1,1,2-3.46l12.27,7.09a2,2,0,0,1-1,3.73Z"/><path class="cls-1" d="M54.52,54.59a2,2,0,0,1-1-3.73l12.27-7.09a2,2,0,0,1,2,3.46L55.52,54.33A2,2,0,0,1,54.52,54.59Z"/><path class="cls-1" d="M23.29,76.87H7a2,2,0,0,1-2-2V61.59a2,2,0,0,1,4,0V72.87H23.29a2,2,0,0,1,0,4Z"/><path class="cls-1" d="M77,27.6a2,2,0,0,1-2-2V11.13H59.28a2,2,0,1,1,0-4H77a2,2,0,0,1,2,2V25.6A2,2,0,0,1,77,27.6Z"/><path class="cls-1" d="M77,76.87H59.28a2,2,0,1,1,0-4H75V61.59a2,2,0,0,1,4,0V74.87A2,2,0,0,1,77,76.87Z"/><path class="cls-1" d="M7,27.6a2,2,0,0,1-2-2V9.13a2,2,0,0,1,2-2H23.29a2,2,0,0,1,0,4H9V25.6A2,2,0,0,1,7,27.6Z"/><g class="cls-2"><rect class="cls-1" width="84" height="84"/></g></g></g></svg>