<svg xmlns="http://www.w3.org/2000/svg" viewBox="0 0 84 84"><defs><style>.cls-1{opacity:0;}.cls-2{fill:#fff;}</style></defs><title>小车 机器</title><g id="图层_2" data-name="图层 2"><g id="图层_1-2" data-name="图层 1"><g class="cls-1"><rect class="cls-2" width="84" height="84"/></g><path class="cls-2" d="M60.32,36.9H23.68A14.35,14.35,0,0,1,9.35,22.57v-.94A14.35,14.35,0,0,1,23.68,7.3H60.32A14.35,14.35,0,0,1,74.65,21.63v.94A14.35,14.35,0,0,1,60.32,36.9ZM23.68,11.3A10.34,10.34,0,0,0,13.35,21.63v.94A10.34,10.34,0,0,0,23.68,32.9H60.32A10.34,10.34,0,0,0,70.65,22.57v-.94A10.34,10.34,0,0,0,60.32,11.3Z"/><path class="cls-2" d="M21.33,76.7H11.17a6,6,0,0,1-6-6V45.9a6,6,0,0,1,6-6H21.33a6,6,0,0,1,6,6V70.7A6,6,0,0,1,21.33,76.7ZM11.17,43.9a2,2,0,0,0-2,2V70.7a2,2,0,0,0,2,2H21.33a2,2,0,0,0,2-2V45.9a2,2,0,0,0-2-2Z"/><rect class="cls-2" x="7" y="47.94" width="18.16" height="4"/><rect class="cls-2" x="7" y="56.54" width="18.16" height="4"/><rect class="cls-2" x="7" y="65.14" width="18.16" height="4"/><path class="cls-2" d="M72.92,76.94H62.76a6,6,0,0,1-6-6V46.15a6,6,0,0,1,6-6H72.92a6,6,0,0,1,6,6V70.94A6,6,0,0,1,72.92,76.94ZM62.76,44.15a2,2,0,0,0-2,2V70.94a2,2,0,0,0,2,2H72.92a2,2,0,0,0,2-2V46.15a2,2,0,0,0-2-2Z"/><rect class="cls-2" x="58.59" y="48.19" width="18.16" height="4"/><rect class="cls-2" x="58.59" y="56.79" width="18.16" height="4"/><rect class="cls-2" x="58.59" y="65.38" width="18.16" height="4"/><rect class="cls-2" x="25.24" y="44.23" width="33.51" height="4"/><rect class="cls-2" x="25.29" y="68.85" width="33.43" height="4"/><rect class="cls-2" x="40" y="34.9" width="4" height="11.33"/><path class="cls-2" d="M59.91,28.91a6.81,6.81,0,1,1,6.81-6.81A6.82,6.82,0,0,1,59.91,28.91Zm0-9.62a2.81,2.81,0,1,0,2.81,2.81A2.82,2.82,0,0,0,59.91,19.29Z"/><path class="cls-2" d="M24.09,28.91A6.81,6.81,0,1,1,30.9,22.1,6.82,6.82,0,0,1,24.09,28.91Zm0-9.62A2.81,2.81,0,1,0,26.9,22.1,2.82,2.82,0,0,0,24.09,19.29Z"/></g></g></svg>