<svg xmlns="http://www.w3.org/2000/svg" viewBox="0 0 84 84">
<defs>
<style>.cls-1{opacity:0;}.cls-2{fill:#fff;}</style>
</defs>
<title>应用</title>
<g id="图层_2" data-name="图层 2">
<g id="图层_1-2" data-name="图层 1">
<g class="cls-1">
<rect class="cls-2" width="84" height="84"/>
</g>
<path class="cls-2" d="M42,81a4,4,0,0,1-2-.53L9.7,63a4,4,0,0,1-2-3.46v-35A4,4,0,0,1,9.7,21L40,3.54a4,4,0,0,1,4,0L74.31,21a4,4,0,0,1,2,3.46v35a4,4,0,0,1-2,3.46L44,80.46A4,4,0,0,1,42,81ZM11.7,24.5v35L42,77,72.31,59.5v-35L42,7,11.7,24.5Z"/>
<path class="cls-2" d="M42,67.58A4,4,0,0,1,40,67L21.33,56.26a4,4,0,0,1-2-3.46V31.23a4,4,0,0,1,2-3.46L40,17a4,4,0,0,1,4,0L62.67,27.77a4,4,0,0,1,2,3.46V52.8a4,4,0,0,1-2,3.46L44,67A4,4,0,0,1,42,67.58ZM23.33,31.23V52.8L42,63.58,60.67,52.8V31.23L42,20.45,23.33,31.24Z"/>
<path class="cls-2" d="M42,67.13a2,2,0,0,1-2-2V42a2,2,0,0,1,4,0V65.13A2,2,0,0,1,42,67.13Z"/>
<path class="cls-2" d="M42,44a2,2,0,0,1-1-.27L21,32.19a2,2,0,1,1,2-3.46L43,40.28A2,2,0,0,1,42,44Z"/>
<path class="cls-2" d="M42,44a2,2,0,0,1-1-3.73L61,28.73a2,2,0,1,1,2,3.46L43,43.75A2,2,0,0,1,42,44Z"/>
</g>
</g>
</svg>