<svg xmlns="http://www.w3.org/2000/svg" viewBox="0 0 84 84"><defs><style>.cls-1{fill:#fff;}.cls-2{opacity:0;}</style></defs><title>更多</title><g id="图层_2" data-name="图层 2"><g id="图层_1-2" data-name="图层 1"><path class="cls-1" d="M14.6,51.6a9.6,9.6,0,1,1,9.6-9.6A9.62,9.62,0,0,1,14.6,51.6Zm0-15.21a5.6,5.6,0,1,0,5.6,5.6A5.61,5.61,0,0,0,14.6,36.4Z"/><path class="cls-1" d="M42,51.6A9.6,9.6,0,1,1,51.6,42,9.62,9.62,0,0,1,42,51.6ZM42,36.4A5.6,5.6,0,1,0,47.6,42,5.61,5.61,0,0,0,42,36.4Z"/><path class="cls-1" d="M69.4,51.6A9.6,9.6,0,1,1,79,42,9.62,9.62,0,0,1,69.4,51.6Zm0-15.21A5.6,5.6,0,1,0,75,42,5.61,5.61,0,0,0,69.4,36.4Z"/><g class="cls-2"><rect class="cls-1" width="84" height="84"/></g></g></g></svg>